<mxfile host="app.diagrams.net" modified="2023-11-22T07:51:29.305Z" agent="Mozilla/5.0 (Windows NT 10.0; Win64; x64) AppleWebKit/537.36 (KHTML, like Gecko) Chrome/119.0.0.0 Safari/537.36" etag="lNprGpZvSsEy6vto_BCP" version="22.1.3" type="github">
  <diagram name="第 1 页" id="TPo1d5tg7N_DPVJKe_-f">
    <mxGraphModel dx="1050" dy="530" grid="1" gridSize="10" guides="1" tooltips="1" connect="1" arrows="1" fold="1" page="1" pageScale="1" pageWidth="827" pageHeight="1169" math="0" shadow="0">
      <root>
        <mxCell id="0" />
        <mxCell id="1" parent="0" />
        <mxCell id="q-aykXHRKy3QLlSxb9v6-1" value="" style="rounded=0;whiteSpace=wrap;html=1;" vertex="1" parent="1">
          <mxGeometry x="210" y="100" width="290" height="150" as="geometry" />
        </mxCell>
        <mxCell id="q-aykXHRKy3QLlSxb9v6-2" value="HDFS" style="shape=cylinder3;whiteSpace=wrap;html=1;boundedLbl=1;backgroundOutline=1;size=15;" vertex="1" parent="1">
          <mxGeometry x="560" y="30" width="60" height="80" as="geometry" />
        </mxCell>
        <mxCell id="q-aykXHRKy3QLlSxb9v6-3" value="kafka" style="ellipse;shape=cloud;whiteSpace=wrap;html=1;" vertex="1" parent="1">
          <mxGeometry x="560" y="230" width="120" height="80" as="geometry" />
        </mxCell>
        <mxCell id="q-aykXHRKy3QLlSxb9v6-4" value="source" style="ellipse;whiteSpace=wrap;html=1;" vertex="1" parent="1">
          <mxGeometry x="220" y="120" width="90" height="40" as="geometry" />
        </mxCell>
        <mxCell id="q-aykXHRKy3QLlSxb9v6-6" value="channel" style="shape=process;whiteSpace=wrap;html=1;backgroundOutline=1;" vertex="1" parent="1">
          <mxGeometry x="294" y="190" width="120" height="40" as="geometry" />
        </mxCell>
        <mxCell id="q-aykXHRKy3QLlSxb9v6-7" value="sink" style="ellipse;whiteSpace=wrap;html=1;" vertex="1" parent="1">
          <mxGeometry x="400" y="120" width="90" height="40" as="geometry" />
        </mxCell>
        <mxCell id="q-aykXHRKy3QLlSxb9v6-9" style="edgeStyle=orthogonalEdgeStyle;rounded=0;orthogonalLoop=1;jettySize=auto;html=1;entryX=0;entryY=0.5;entryDx=0;entryDy=0;" edge="1" parent="1" source="q-aykXHRKy3QLlSxb9v6-8" target="q-aykXHRKy3QLlSxb9v6-1">
          <mxGeometry relative="1" as="geometry" />
        </mxCell>
        <mxCell id="q-aykXHRKy3QLlSxb9v6-8" value="darta" style="ellipse;whiteSpace=wrap;html=1;aspect=fixed;" vertex="1" parent="1">
          <mxGeometry x="30" y="135" width="80" height="80" as="geometry" />
        </mxCell>
        <mxCell id="q-aykXHRKy3QLlSxb9v6-10" style="edgeStyle=orthogonalEdgeStyle;rounded=0;orthogonalLoop=1;jettySize=auto;html=1;entryX=0;entryY=0.5;entryDx=0;entryDy=0;entryPerimeter=0;" edge="1" parent="1" source="q-aykXHRKy3QLlSxb9v6-1" target="q-aykXHRKy3QLlSxb9v6-2">
          <mxGeometry relative="1" as="geometry" />
        </mxCell>
        <mxCell id="q-aykXHRKy3QLlSxb9v6-11" style="edgeStyle=orthogonalEdgeStyle;rounded=0;orthogonalLoop=1;jettySize=auto;html=1;entryX=0.16;entryY=0.55;entryDx=0;entryDy=0;entryPerimeter=0;" edge="1" parent="1" source="q-aykXHRKy3QLlSxb9v6-1" target="q-aykXHRKy3QLlSxb9v6-3">
          <mxGeometry relative="1" as="geometry" />
        </mxCell>
      </root>
    </mxGraphModel>
  </diagram>
</mxfile>
